<?xml version="1.0" encoding="UTF-8" standalone="no"?>
<svg
   version="1.0"
   width="300"
   height="300"
   viewBox="0 0 3000.0023 3000.0024"
   preserveAspectRatio="xMidYMid"
   id="svg8"
   sodipodi:docname="fortran.svg"
   inkscape:version="1.2.2 (732a01da63, 2022-12-09)"
   xmlns:inkscape="http://www.inkscape.org/namespaces/inkscape"
   xmlns:sodipodi="http://sodipodi.sourceforge.net/DTD/sodipodi-0.dtd"
   xmlns="http://www.w3.org/2000/svg"
   xmlns:svg="http://www.w3.org/2000/svg">
  <defs
     id="defs9" />
  <sodipodi:namedview
     id="namedview7"
     pagecolor="#505050"
     bordercolor="#ffffff"
     borderopacity="1"
     inkscape:showpageshadow="0"
     inkscape:pageopacity="0"
     inkscape:pagecheckerboard="1"
     inkscape:deskcolor="#505050"
     showgrid="false"
     inkscape:zoom="1.1492599"
     inkscape:cx="75.265827"
     inkscape:cy="157.49266"
     inkscape:window-width="1920"
     inkscape:window-height="1009"
     inkscape:window-x="-8"
     inkscape:window-y="-8"
     inkscape:window-maximized="1"
     inkscape:current-layer="svg8" />
  <rect
     style="display:inline;fill:#734f96;fill-opacity:1;stroke:none;stroke-width:82.3501;stroke-linecap:square;stroke-miterlimit:7"
     id="rect689"
     width="2971.7632"
     height="2971.7632"
     x="14.119583"
     y="14.119583"
     ry="461.68085" />
  <path
     d="m 408.45711,2417.8372 115.02292,-7.0422 C 757.04699,2395.5368 754.69958,2396.7105 766.43661,2213.6128 776.99994,2039.9047 763.69367,679.85721 755.87328,652.58739 742.99189,607.66977 694.65761,581.83538 550.47521,581.87177 l -142.0181,-0.88028 V 326.29787 H 2591.5452 v 975.34743 l -257.041,-3.8145 c -2.3474,-2.3474 -9.3896,-71.3025 -14.0844,-134.6825 -26.9952,-298.12061 -93.8963,-469.64796 -223.0036,-536.54905 -68.0748,-35.2111 -174.3713,-45.58898 -514.8473,-45.69227 l -317.3084,0.0845 v 731.21722 h 56.3378 c 95.0699,-1.1737 215.9614,-23.4741 255.8673,-48.1219 51.6429,-31.69 95.07,-123.2388 110.3281,-233.5669 11.5023,-80.51962 20.3778,-140.76581 20.3778,-140.76581 l 249.574,-0.0786 V 2051.6417 h -258.2148 v -45.7744 c 0,-75.117 -35.2111,-249.9988 -59.8588,-302.8154 -38.7322,-80.9856 -104.4596,-109.1544 -291.0785,-126.76 l -85.6803,-8.2159 4.6948,376.7587 c 3.5211,357.9796 5.8685,377.9325 28.1689,408.4488 28.1689,37.5585 58.6852,44.6007 245.304,58.6852 l 125.2658,5.9589 -0.8533,255.7769 H 408.45711 Z"
     id="path5"
     style="fill:#ffffff;stroke:none;stroke-width:1.1737" />
</svg>
